<svg id="Capa_1" data-name="Capa 1" xmlns="http://www.w3.org/2000/svg" viewBox="0 0 216 216"><defs><style>.cls-1{fill:#e4edef;}.cls-2{fill:#7f7f7f;}.cls-3{fill:#efb525;}.cls-4{fill:#6a9a5f;}.cls-5{opacity:0.1;}.cls-6{opacity:0.2;}.cls-7{fill:#eae8e8;}.cls-8{fill:#b7b7b7;}.cls-9{fill:#464646;}.cls-10{fill:#cccaca;}.cls-11{fill:#8c8b8b;}.cls-12{fill:#ce4221;}.cls-13{fill:#353535;}.cls-14{fill:#d1b699;}.cls-15{fill:#f4d4ab;}.cls-16{fill:#33210a;}</style></defs><title>dwarf</title><path class="cls-1" d="M167.16,105.51v45.61a5,5,0,0,1-5,5H119.6a5,5,0,0,0-5,5v20a5,5,0,0,1-5,5h-38a5,5,0,0,1-3.56-1.48L48.48,165.11A5,5,0,0,1,47,161.56v-56a5,5,0,0,1,1.33-3.38l7.86-8.59,9.19-10,7.68-8.39a5,5,0,0,1,3.68-1.63h60.68a5,5,0,0,1,3.68,1.63l7.69,8.39,9.19,10,7.86,8.59A5,5,0,0,1,167.16,105.51Z"/><polygon class="cls-2" points="46.99 176.16 167.16 176.16 167.16 157.12 47 157.12 46.99 176.16"/><polygon class="cls-2" points="157.98 93.54 56.19 93.54 65.38 83.53 148.79 83.53 157.98 93.54"/><path class="cls-3" d="M106.55,134.82l-15.83,5.8a1.54,1.54,0,0,0-1,1.45v20.26a1.57,1.57,0,0,0,1,1.46l15.83,5.79a1.49,1.49,0,0,0,1.06,0l15.84-5.79a1.56,1.56,0,0,0,1-1.46V142.07a1.53,1.53,0,0,0-1-1.45l-15.84-5.8A1.61,1.61,0,0,0,106.55,134.82Z"/><path class="cls-4" d="M106.55,134.82l-15.83,5.8a1.54,1.54,0,0,0-1,1.45v20.26a1.57,1.57,0,0,0,1,1.46l15.83,5.79a1.49,1.49,0,0,0,1.06,0l15.84-5.79a1.56,1.56,0,0,0,1-1.46V142.07a1.53,1.53,0,0,0-1-1.45l-15.84-5.8A1.61,1.61,0,0,0,106.55,134.82Z"/><path class="cls-5" d="M123.45,140.62l-15.84-5.8a1.61,1.61,0,0,0-1.06,0l-15.83,5.8a1.48,1.48,0,0,0-.68.49l16.72,6.12a.91.91,0,0,0,.65,0l16.72-6.12A1.59,1.59,0,0,0,123.45,140.62Z"/><path class="cls-6" d="M107.41,157.17a1,1,0,0,0-.65,0L90,163.29a1.5,1.5,0,0,0,.68.5l15.83,5.79a1.49,1.49,0,0,0,1.06,0l15.84-5.79a1.61,1.61,0,0,0,.68-.5Z"/><path class="cls-5" d="M107.41,147.23a.91.91,0,0,1-.65,0l-1.11-.41v22.43l.9.33a1.49,1.49,0,0,0,1.06,0l.91-.33V146.82Z"/><path class="cls-4" d="M108.4,106a1.51,1.51,0,0,1-1.51-1.51V97.17a1.51,1.51,0,1,1,3,0v7.27A1.52,1.52,0,0,1,108.4,106Z"/><path class="cls-7" d="M113.62,95.11H103.41a1.1,1.1,0,0,1-1.1-1.1V79.47a1.09,1.09,0,0,1,1.1-1.09h10.21a1.09,1.09,0,0,1,1.1,1.09V94A1.1,1.1,0,0,1,113.62,95.11Z"/><path class="cls-8" d="M110.53,78.38V95.11h3.09a1.1,1.1,0,0,0,1.1-1.1V79.47a1.09,1.09,0,0,0-1.1-1.09Z"/><path class="cls-9" d="M112.79,78.38h-8.06V76.13a3.1,3.1,0,0,1,3.1-3.1h1.86a3.1,3.1,0,0,1,3.1,3.1Z"/><path class="cls-9" d="M111.86,99.24h-6.92a.94.94,0,0,1-.94-.94V95.11h8.79V98.3A.94.94,0,0,1,111.86,99.24Z"/><path class="cls-10" d="M174.67,61H39.49a5,5,0,0,0-5,5V201.19a5,5,0,0,0,5,5h11a5,5,0,0,0,2.78-.84L65.77,197a5,5,0,0,1,2.77-.84H143.3a5,5,0,0,1,2.49.66l15.21,8.7a5.06,5.06,0,0,0,2.49.65h11.18a5,5,0,0,0,5-5V66A5,5,0,0,0,174.67,61Zm-7.51,90.12a5,5,0,0,1-5,5H119.6a5,5,0,0,0-5,5v10a5,5,0,0,1-5,5H62.23a5,5,0,0,1-3.56-1.47l-10.19-9.57A5,5,0,0,1,47,161.56v-56a5,5,0,0,1,1.33-3.38l7.86-8.59,9.19-10,7.68-8.39a5,5,0,0,1,3.68-1.63h60.68a5,5,0,0,1,3.68,1.63l7.69,8.39,9.19,10,7.86,8.59a5,5,0,0,1,1.32,3.38Z"/><path class="cls-11" d="M45.72,93.54a2.51,2.51,0,0,1-1.88-4.15l17.52-20a2.51,2.51,0,0,1,3.77,3.3l-17.52,20A2.52,2.52,0,0,1,45.72,93.54Z"/><path class="cls-11" d="M45.72,78.52A2.5,2.5,0,0,1,44,74.25l5-5a2.5,2.5,0,0,1,3.54,3.54l-5,5A2.47,2.47,0,0,1,45.72,78.52Z"/><path class="cls-4" d="M182.34,44.3c-.86-10.58-4-20.16-8.86-27-6.4-9-11.86-9.08-13.91-8.69a5.21,5.21,0,0,0-4.25,3.73,5,5,0,0,0,2,5.13,4.1,4.1,0,0,1,.87.87c-.39.41-2.17,1.73-9.5,3-12.37,2.15-21,9.43-26.14,15.17a53.71,53.71,0,0,0-12.15,22.7,2.11,2.11,0,0,0,.28,1.62,2.16,2.16,0,0,0,1.36.94L175.6,75A2.12,2.12,0,0,0,178,73.79C181.66,65.4,183.21,54.92,182.34,44.3Z"/><path class="cls-6" d="M182.34,44.3c-.86-10.58-4-20.16-8.86-27-6.28-8.84-11.66-9.07-13.79-8.71,1.92,1.15,4.15,3.3,6.5,7.19,4,6.65,6.47,16.09,6.92,26.57s-1.18,21-4.6,29.45a1.92,1.92,0,0,1-2.1,1.29L175.6,75A2.12,2.12,0,0,0,178,73.79C181.66,65.4,183.21,54.92,182.34,44.3Z"/><path class="cls-12" d="M167.16,133.38V150.9a5,5,0,0,1-5,5H119.6a5,5,0,0,0-5,5v10a5,5,0,0,1-5,5H62.23a5,5,0,0,1-3.56-1.47l-10.19-9.57A5,5,0,0,1,47,161.34v-28H34.48V201a5,5,0,0,0,5,5h11a5,5,0,0,0,2.78-.84l12.5-8.33a5,5,0,0,1,2.77-.84H143.3a5,5,0,0,1,2.49.66l15.21,8.7a5.06,5.06,0,0,0,2.49.65h11.18a5,5,0,0,0,5-5V133.38Z"/><path class="cls-13" d="M160.68,176.16a10.26,10.26,0,0,1-1.23-.13,4.41,4.41,0,0,1-1.23-.39,5.14,5.14,0,0,1-1.17-.59c-.32-.26-.64-.52-1-.77a6.59,6.59,0,0,1,0-9.21l1-.77a4.76,4.76,0,0,1,1.17-.59,3.84,3.84,0,0,1,1.23-.39,6.48,6.48,0,0,1,5.83,1.75c.26.33.52.65.78,1a3.77,3.77,0,0,1,.59,1.1,4.09,4.09,0,0,1,.38,1.23,7.35,7.35,0,0,1,.13,1.24A8.06,8.06,0,0,1,167,171a4.33,4.33,0,0,1-.38,1.17,5.35,5.35,0,0,1-.59,1.17l-.78,1-1,.77a4.7,4.7,0,0,1-1.16.59,4.48,4.48,0,0,1-1.24.39,9.85,9.85,0,0,1-1.23.13Z"/><rect class="cls-13" x="121.99" y="163.2" width="27.99" height="12.96" rx="2.4"/><path class="cls-14" d="M156.81,207.89c-.29-1.41-.58-3.95-.87-5.36a.76.76,0,0,0-.7-.64l-2.32-.34,1.55-.39a.84.84,0,0,0,.65-.92c-.17-1.08-1.41-3.94-1.57-5.06a.73.73,0,0,0-.49-.6c-1.57-.39-3.18-.76-4.8-1.06l4.24-.35a.81.81,0,0,0,.6-1.1c-.6-1.91-1-3.88-1.54-5.83-.52-1.78-1.06-3.49-1.59-5.28a.78.78,0,0,0-.86-.44c-2.62.42-5.3.64-8,.88-7.77.65-15.53.83-23.28.75-5,0-10-.1-14.9-.33s-9.06-.69-14-1.2c-7.66-.8-15.37,1-23.08.34-3.67-.33-7.33-.64-11-.88a.78.78,0,0,0-.55.19.62.62,0,0,0-.32.65.67.67,0,0,0,.09.26c.35.64.65,1.27,1,1.9.15.28.29.56.45.85.65,1.19.41,4.25.74,5.6a46.27,46.27,0,0,1,.29,6.92,7.84,7.84,0,0,1-.07.84c0,.38-.2.63.09.11a.81.81,0,0,0,.35,1.22,12.54,12.54,0,0,0,2.06.43c1.41.21,2.79.45,4.2.67h0c-1,.09-2,.17-3.07.32a12.07,12.07,0,0,0-2.94.43.83.83,0,0,0-.48.86,22.14,22.14,0,0,1,1,7.93v.09a.77.77,0,0,0,.91.81h.42c1.82.05,3.63,0,5.46,0,4,0,8,0,12-.1,7.69-.09,15.44-.15,23.14-.45,13.73-.54,28.49,1.55,42.18.58,4.87-.39,9.7-.65,14.49-1.41A.77.77,0,0,0,156.81,207.89Z"/><path class="cls-15" d="M156.15,207.32c-.29-1.41-.58-3.95-.87-5.36a.76.76,0,0,0-.7-.65l-2.33-.34,1.56-.38a.86.86,0,0,0,.64-.92c-.17-1.09-1.4-3.95-1.56-5.07a.76.76,0,0,0-.49-.6c-1.58-.39-3.18-.76-4.8-1.06l4.23-.34a.81.81,0,0,0,.6-1.1c-.59-1.91-1-3.89-1.53-5.83-.53-1.79-1.06-3.5-1.59-5.29a.79.79,0,0,0-.86-.43c-2.63.42-5.31.63-8,.88-7.77.65-15.53.82-23.29.75-5,0-10-.11-14.9-.34s-9.05-.69-14-1.19c-7.66-.8-15.37,1-23.09.34-3.66-.34-7.32-.65-11-.89a.88.88,0,0,0-.56.19.64.64,0,0,0-.31.66.73.73,0,0,0,.09.26c.34.63.65,1.26,1,1.89l.44.85c.65,1.19.42,4.25.74,5.6a43.81,43.81,0,0,1,.29,6.92,6.25,6.25,0,0,1-.06.85c0,.37-.2.63.08.11a.81.81,0,0,0,.35,1.21,11,11,0,0,0,2.07.43l4.2.67h0c-1,.1-2.05.17-3.07.32a11.55,11.55,0,0,0-2.94.44.81.81,0,0,0-.49.85,22.17,22.17,0,0,1,1,7.93.28.28,0,0,1,0,.09.78.78,0,0,0,.92.82h.41c1.82,0,3.64,0,5.47,0,4,0,8-.06,12-.11,7.7-.08,15.45-.14,23.14-.45,13.73-.53,28.5,1.55,42.19.58,4.87-.39,9.7-.65,14.49-1.4A.78.78,0,0,0,156.15,207.32Z"/><path class="cls-16" d="M90.41,202.34c0,.18-.06.35-.08.53s-.27.55-.68.77a5.08,5.08,0,0,1-2.12.46,2.17,2.17,0,0,1-1.24-.29,1.65,1.65,0,0,1-.73-1.07c0-.3,0-.59-.07-.89a11.53,11.53,0,0,0-.29-2.19,3.12,3.12,0,0,1,.33-1.82c.08-.2.16-.4.22-.6a.94.94,0,0,0,0-.09.76.76,0,0,1,.73-.72h0a.5.5,0,0,1,.56.69V198c0,1.16,0,2.36,0,3.54,0,.45.06.72.21.85s.7.19,1.58,0v-.49c0-.5,0-1,0-1.53a8.08,8.08,0,0,0-.08-.86,7.33,7.33,0,0,1-.07-1.41c0-.72-.09-1.62-1.61-2.24a3.34,3.34,0,0,1-2.34-3.28c0-.57-.07-1.15-.11-1.72l0-.51a1.56,1.56,0,0,1,.34-1.09,2.83,2.83,0,0,1,2.21-.89c2.38,0,2.81.14,2.9,1.92,0,.15,0,.32.06.5.1.59.22,1.32-.42,1.77a.49.49,0,0,1-.47,0c-.63-.33-.63-1.14-.64-1.8a5.16,5.16,0,0,0,0-.71L88.3,190a4.52,4.52,0,0,0-2-.08l0,.08a1,1,0,0,0-.06.36l.06.51a9.15,9.15,0,0,0,.32,1.87,3.66,3.66,0,0,0,.84,1.17l.12.12a3.54,3.54,0,0,0,.93.66,2.53,2.53,0,0,1,1.5,2.49,9,9,0,0,0,.27,2.15,14.87,14.87,0,0,1,.26,1.51A6.16,6.16,0,0,1,90.41,202.34Z"/><path class="cls-16" d="M96.7,201.49c-.31.65-.17,1.38-.88,1.67a3.7,3.7,0,0,1-3,.38,1.32,1.32,0,0,1-.76-1.32c0-1.79-.16-3.58-.11-5.37.06-2.42-.08-4.84-.1-7.27,0-.45,0-.81.55-.9a.82.82,0,0,1,.94.57,1.23,1.23,0,0,1,.13.49c0,1.85.1,3.7.11,5.55,0,1,.14,1.91.09,2.93a8,8,0,0,0,0,1.27c.07.76-.11,1.51.37,2C94.74,202.19,95.75,201.54,96.7,201.49Z"/><path class="cls-16" d="M103.82,202.34c0,.74-.26,1.1-.94,1.21a2.4,2.4,0,0,1-.46,0,1.84,1.84,0,0,0-.41,0l-.19,0a4.55,4.55,0,0,0-1.12.24,2.18,2.18,0,0,1-.76.15,1.5,1.5,0,0,1-.81-.23,1.61,1.61,0,0,1-.64-1.37l-.06-4.24v-.08a1.93,1.93,0,0,0-.06-.49,5.07,5.07,0,0,1,0-2.88,4.4,4.4,0,0,0,.07-.73c0-.13,0-.25,0-.38l.06-.6a7.86,7.86,0,0,0,.08-1.28,12.71,12.71,0,0,0-.19-1.63c0-.14,0-.28-.07-.41a1.37,1.37,0,0,1,.61-1.16.83.83,0,0,1,.85-.17,4.27,4.27,0,0,0,2.48.29.24.24,0,0,1,.17.06l0,0,.07,0v.08c-.19,1.1-.89,1.62-2.42,1.76v4.67H102v.11a1.14,1.14,0,0,1-.8,1.3l-.71.27-.34.14,0,1c.08,1.26.15,2.51.22,3.76a2,2,0,0,0,.06.27l0,.11h3.3Z"/><path class="cls-16" d="M110.45,202.34c0,.74-.26,1.1-1,1.21a2.36,2.36,0,0,1-.46,0,1.86,1.86,0,0,0-.41,0l-.18,0a4.63,4.63,0,0,0-1.13.24,2.13,2.13,0,0,1-.75.15,1.48,1.48,0,0,1-.81-.23,1.61,1.61,0,0,1-.65-1.37l-.06-4.24v-.08a1.57,1.57,0,0,0,0-.49,5.06,5.06,0,0,1,0-2.88A4.4,4.4,0,0,0,105,194c0-.13,0-.25,0-.38l.06-.6a9.18,9.18,0,0,0,.09-1.28,12.73,12.73,0,0,0-.2-1.63c0-.14,0-.28-.07-.41a1.39,1.39,0,0,1,.61-1.16.83.83,0,0,1,.85-.17,4.27,4.27,0,0,0,2.48.29.24.24,0,0,1,.17.06l0,0,.07,0v.08c-.19,1.1-.89,1.62-2.42,1.76v4.67h1.91v.11a1.16,1.16,0,0,1-.8,1.3c-.24.08-.46.17-.72.27l-.34.14.06,1,.21,3.76a2,2,0,0,0,.06.27l0,.11h3.3Z"/><path class="cls-16" d="M117.14,191.77a7.7,7.7,0,0,1-2.31,4.28,2.85,2.85,0,0,1-.93.43c0,1.62,0,3.26,0,4.89,0,.58,0,1.15.06,1.73,0,.73-.32.93-1.08,1-.32,0-.77,0-.9-.12-.33-.33-.27-.94-.27-1.42,0-1.42.11-2.84.11-4.26s-.07-3.08-.09-4.62c0-1.69,0-3.37,0-5,.93-.17,1.66-.32,2.4-.44,1.39-.23,2.45.18,2.87,1.34A5.05,5.05,0,0,1,117.14,191.77Zm-2.43-2.43-1.27.47c.14,1.6.25,2.91.36,4.25A3.83,3.83,0,0,0,114.71,189.34Z"/><path class="cls-16" d="M126.67,190.76c-.69,1.16-1,2.57-1.65,3.72-1.54,2.53-1,5.27-1.12,8,0,.45,0,1.41-.75,1.41s-.72-1.25-.8-2c-.17-1.79-.24-3.59-.37-5.58-1.32-1.18-2.6-3.83-3.31-5.67-.35-.91-.07-1.42.43-1.56.68-.2,1.2.21,1.48,1,.34,1,.83,2.42,1.24,3.4a9.32,9.32,0,0,0,.94,1.42l1.63-4.22c.08-.23.19-.45.27-.68.35-.95,1.13-1.75,2-1.15C127.38,189.26,127.13,190,126.67,190.76Z"/></svg>