<svg id="Capa_1" data-name="Capa 1" xmlns="http://www.w3.org/2000/svg" viewBox="0 0 216 216"><defs><style>.cls-1{fill:#e4edef;}.cls-2{fill:#7f7f7f;}.cls-3{fill:#efb525;}.cls-4{fill:#53918c;}.cls-5{opacity:0.1;}.cls-6{opacity:0.2;}.cls-7{fill:#eae8e8;}.cls-8{fill:#b7b7b7;}.cls-9{fill:#464646;}.cls-10{fill:#cccaca;}.cls-11{fill:#8c8b8b;}.cls-12{fill:#ad936b;}.cls-13{fill:#353535;}.cls-14{fill:#d1b699;}.cls-15{fill:#f4d4ab;}.cls-16{fill:#33210a;}</style></defs><title>dwarf</title><path class="cls-1" d="M167.16,105.51v45.61a5,5,0,0,1-5,5H119.6a5,5,0,0,0-5,5v20a5,5,0,0,1-5,5h-38a5,5,0,0,1-3.56-1.48L48.48,165.11A5,5,0,0,1,47,161.56v-56a5,5,0,0,1,1.33-3.38l7.86-8.59,9.19-10,7.68-8.39a5,5,0,0,1,3.68-1.63h60.68a5,5,0,0,1,3.68,1.63l7.69,8.39,9.19,10,7.86,8.59A5,5,0,0,1,167.16,105.51Z"/><polygon class="cls-2" points="46.99 176.16 167.16 176.16 167.16 157.12 47 157.12 46.99 176.16"/><polygon class="cls-2" points="157.98 93.54 56.19 93.54 65.38 83.53 148.79 83.53 157.98 93.54"/><path class="cls-3" d="M106.55,134.82l-15.83,5.8a1.54,1.54,0,0,0-1,1.45v20.26a1.57,1.57,0,0,0,1,1.46l15.83,5.79a1.49,1.49,0,0,0,1.06,0l15.84-5.79a1.56,1.56,0,0,0,1-1.46V142.07a1.53,1.53,0,0,0-1-1.45l-15.84-5.8A1.61,1.61,0,0,0,106.55,134.82Z"/><path class="cls-4" d="M106.55,134.82l-15.83,5.8a1.54,1.54,0,0,0-1,1.45v20.26a1.57,1.57,0,0,0,1,1.46l15.83,5.79a1.49,1.49,0,0,0,1.06,0l15.84-5.79a1.56,1.56,0,0,0,1-1.46V142.07a1.53,1.53,0,0,0-1-1.45l-15.84-5.8A1.61,1.61,0,0,0,106.55,134.82Z"/><path class="cls-5" d="M123.45,140.62l-15.84-5.8a1.61,1.61,0,0,0-1.06,0l-15.83,5.8a1.48,1.48,0,0,0-.68.49l16.72,6.12a.91.91,0,0,0,.65,0l16.72-6.12A1.59,1.59,0,0,0,123.45,140.62Z"/><path class="cls-6" d="M107.41,157.17a1,1,0,0,0-.65,0L90,163.29a1.5,1.5,0,0,0,.68.5l15.83,5.79a1.49,1.49,0,0,0,1.06,0l15.84-5.79a1.61,1.61,0,0,0,.68-.5Z"/><path class="cls-5" d="M107.41,147.23a.91.91,0,0,1-.65,0l-1.11-.41v22.43l.9.33a1.49,1.49,0,0,0,1.06,0l.91-.33V146.82Z"/><path class="cls-4" d="M108.4,106a1.51,1.51,0,0,1-1.51-1.51V97.17a1.51,1.51,0,1,1,3,0v7.27A1.52,1.52,0,0,1,108.4,106Z"/><path class="cls-7" d="M113.62,95.11H103.41a1.1,1.1,0,0,1-1.1-1.1V79.47a1.09,1.09,0,0,1,1.1-1.09h10.21a1.09,1.09,0,0,1,1.1,1.09V94A1.1,1.1,0,0,1,113.62,95.11Z"/><path class="cls-8" d="M110.53,78.38V95.11h3.09a1.1,1.1,0,0,0,1.1-1.1V79.47a1.09,1.09,0,0,0-1.1-1.09Z"/><path class="cls-9" d="M112.79,78.38h-8.06V76.13a3.1,3.1,0,0,1,3.1-3.1h1.86a3.1,3.1,0,0,1,3.1,3.1Z"/><path class="cls-9" d="M111.86,99.24h-6.92a.94.94,0,0,1-.94-.94V95.11h8.79V98.3A.94.94,0,0,1,111.86,99.24Z"/><path class="cls-10" d="M174.67,61H39.49a5,5,0,0,0-5,5V201.19a5,5,0,0,0,5,5h11a5,5,0,0,0,2.78-.84L65.77,197a5,5,0,0,1,2.77-.84H143.3a5,5,0,0,1,2.49.66l15.21,8.7a5.06,5.06,0,0,0,2.49.65h11.18a5,5,0,0,0,5-5V66A5,5,0,0,0,174.67,61Zm-7.51,90.12a5,5,0,0,1-5,5H119.6a5,5,0,0,0-5,5v10a5,5,0,0,1-5,5H62.23a5,5,0,0,1-3.56-1.47l-10.19-9.57A5,5,0,0,1,47,161.56v-56a5,5,0,0,1,1.33-3.38l7.86-8.59,9.19-10,7.68-8.39a5,5,0,0,1,3.68-1.63h60.68a5,5,0,0,1,3.68,1.63l7.69,8.39,9.19,10,7.86,8.59a5,5,0,0,1,1.32,3.38Z"/><path class="cls-11" d="M45.72,93.54a2.51,2.51,0,0,1-1.88-4.15l17.52-20a2.51,2.51,0,0,1,3.77,3.3l-17.52,20A2.52,2.52,0,0,1,45.72,93.54Z"/><path class="cls-11" d="M45.72,78.52A2.5,2.5,0,0,1,44,74.25l5-5a2.5,2.5,0,0,1,3.54,3.54l-5,5A2.47,2.47,0,0,1,45.72,78.52Z"/><path class="cls-4" d="M182.34,44.3c-.86-10.58-4-20.16-8.86-27-6.4-9-11.86-9.08-13.91-8.69a5.21,5.21,0,0,0-4.25,3.73,5,5,0,0,0,2,5.13,4.1,4.1,0,0,1,.87.87c-.39.41-2.17,1.73-9.5,3-12.37,2.15-21,9.43-26.14,15.17a53.71,53.71,0,0,0-12.15,22.7,2.11,2.11,0,0,0,.28,1.62,2.16,2.16,0,0,0,1.36.94L175.6,75A2.12,2.12,0,0,0,178,73.79C181.66,65.4,183.21,54.92,182.34,44.3Z"/><path class="cls-6" d="M182.34,44.3c-.86-10.58-4-20.16-8.86-27-6.28-8.84-11.66-9.07-13.79-8.71,1.92,1.15,4.15,3.3,6.5,7.19,4,6.65,6.47,16.09,6.92,26.57s-1.18,21-4.6,29.45a1.92,1.92,0,0,1-2.1,1.29L175.6,75A2.12,2.12,0,0,0,178,73.79C181.66,65.4,183.21,54.92,182.34,44.3Z"/><path class="cls-12" d="M167.16,133.38V150.9a5,5,0,0,1-5,5H119.6a5,5,0,0,0-5,5v10a5,5,0,0,1-5,5H62.23a5,5,0,0,1-3.56-1.47l-10.19-9.57A5,5,0,0,1,47,161.34v-28H34.48V201a5,5,0,0,0,5,5h11a5,5,0,0,0,2.78-.84l12.5-8.33a5,5,0,0,1,2.77-.84H143.3a5,5,0,0,1,2.49.66l15.21,8.7a5.06,5.06,0,0,0,2.49.65h11.18a5,5,0,0,0,5-5V133.38Z"/><path class="cls-13" d="M160.68,176.16a10.26,10.26,0,0,1-1.23-.13,4.41,4.41,0,0,1-1.23-.39,5.14,5.14,0,0,1-1.17-.59c-.32-.26-.64-.52-1-.77a6.59,6.59,0,0,1,0-9.21l1-.77a4.76,4.76,0,0,1,1.17-.59,3.84,3.84,0,0,1,1.23-.39,6.48,6.48,0,0,1,5.83,1.75c.26.33.52.65.78,1a3.77,3.77,0,0,1,.59,1.1,4.09,4.09,0,0,1,.38,1.23,7.35,7.35,0,0,1,.13,1.24A8.06,8.06,0,0,1,167,171a4.33,4.33,0,0,1-.38,1.17,5.35,5.35,0,0,1-.59,1.17l-.78,1-1,.77a4.7,4.7,0,0,1-1.16.59,4.48,4.48,0,0,1-1.24.39,9.85,9.85,0,0,1-1.23.13Z"/><rect class="cls-13" x="121.99" y="163.2" width="27.99" height="12.96" rx="2.4"/><path class="cls-14" d="M156.81,207.89c-.29-1.41-.58-3.95-.87-5.36a.76.76,0,0,0-.7-.64l-2.32-.34,1.55-.39a.84.84,0,0,0,.65-.92c-.17-1.08-1.41-3.94-1.57-5.06a.73.73,0,0,0-.49-.6c-1.57-.39-3.18-.76-4.8-1.06l4.24-.35a.81.81,0,0,0,.6-1.1c-.6-1.91-1-3.88-1.54-5.83-.52-1.78-1.06-3.49-1.59-5.28a.78.78,0,0,0-.86-.44c-2.62.42-5.3.64-8,.88-7.77.65-15.53.83-23.28.75-5,0-10-.1-14.9-.33s-9.06-.69-14-1.2c-7.66-.8-15.37,1-23.08.34-3.67-.33-7.33-.64-11-.88a.78.78,0,0,0-.55.19.62.62,0,0,0-.32.65.67.67,0,0,0,.09.26c.35.64.65,1.27,1,1.9.15.28.29.56.45.85.65,1.19.41,4.25.74,5.6a46.27,46.27,0,0,1,.29,6.92,7.84,7.84,0,0,1-.07.84c0,.38-.2.63.09.11a.81.81,0,0,0,.35,1.22,12.54,12.54,0,0,0,2.06.43c1.41.21,2.79.45,4.2.67h0c-1,.09-2,.17-3.07.32a12.07,12.07,0,0,0-2.94.43.83.83,0,0,0-.48.86,22.14,22.14,0,0,1,1,7.93v.09a.77.77,0,0,0,.91.81h.42c1.82.05,3.63,0,5.46,0,4,0,8,0,12-.1,7.69-.09,15.44-.15,23.14-.45,13.73-.54,28.49,1.55,42.18.58,4.87-.39,9.7-.65,14.49-1.41A.77.77,0,0,0,156.81,207.89Z"/><path class="cls-15" d="M156.15,207.32c-.29-1.41-.58-3.95-.87-5.36a.76.76,0,0,0-.7-.65l-2.33-.34,1.56-.38a.86.86,0,0,0,.64-.92c-.17-1.09-1.4-3.95-1.56-5.07a.76.76,0,0,0-.49-.6c-1.58-.39-3.18-.76-4.8-1.06l4.23-.34a.81.81,0,0,0,.6-1.1c-.59-1.91-1-3.89-1.53-5.83-.53-1.79-1.06-3.5-1.59-5.29a.79.79,0,0,0-.86-.43c-2.63.42-5.31.63-8,.88-7.77.65-15.53.82-23.29.75-5,0-10-.11-14.9-.34s-9.05-.69-14-1.19c-7.66-.8-15.37,1-23.09.34-3.66-.34-7.32-.65-11-.89a.88.88,0,0,0-.56.19.64.64,0,0,0-.31.66.73.73,0,0,0,.09.26c.34.63.65,1.26,1,1.89l.44.85c.65,1.19.42,4.25.74,5.6a43.81,43.81,0,0,1,.29,6.92,6.25,6.25,0,0,1-.06.85c0,.37-.2.63.08.11a.81.81,0,0,0,.35,1.21,11,11,0,0,0,2.07.43l4.2.67h0c-1,.1-2.05.17-3.07.32a11.55,11.55,0,0,0-2.94.44.81.81,0,0,0-.49.85,22.17,22.17,0,0,1,1,7.93.28.28,0,0,1,0,.09.78.78,0,0,0,.92.82h.41c1.82,0,3.64,0,5.47,0,4,0,8-.06,12-.11,7.7-.08,15.45-.14,23.14-.45,13.73-.53,28.5,1.55,42.19.58,4.87-.39,9.7-.65,14.49-1.4A.78.78,0,0,0,156.15,207.32Z"/><path class="cls-16" d="M85.77,196.6c0,.34-.1.68-.14,1-.15,1.06-.3,2.16-.56,3.22,0,.2-.08.41-.12.64-.13.86-.29,1.82-1.21,2.12a2.27,2.27,0,0,1-.73.11,4.84,4.84,0,0,1-1.75-.41,1.79,1.79,0,0,1-1.13-1.15,7,7,0,0,1-.21-1.27l-.09-.83c-.11-1-.22-2-.28-3.05s-.06-2-.06-3v-.57c0-.7,0-1.41.05-2.1v-.2a3.16,3.16,0,0,1,0-.32,2.33,2.33,0,0,0,0-.36,2.12,2.12,0,0,0-.11-.69.81.81,0,0,1,0-.65.8.8,0,0,1,.55-.36,9.46,9.46,0,0,1,3.06-.14,2,2,0,0,1,2,2,9.57,9.57,0,0,1-.56,3.1c-.11.37-.2.75-.28,1.09,0,.11,0,.22-.07.32l.39.29c.34.26.64.48.92.72A.67.67,0,0,1,85.77,196.6Zm-4.7-1.71.28-.09a7,7,0,0,1,.83-.24.46.46,0,0,0,.45-.42c.09-.4.2-.8.3-1.18l.21-.78c.1-.4.2-.84.27-1.28a.61.61,0,0,0-.08-.5.93.93,0,0,0-.67-.25,8.21,8.21,0,0,0-.86,0h-.44l-.06.32c0,.29-.1.55-.12.82s0,.66,0,1,0,.54,0,.81c0,.45,0,.91-.07,1.35Zm3,2.16c0-.26-.08-.38-.31-.42a5.64,5.64,0,0,0-2.17,0c-.37.09-.41.28-.4.45,0,.42,0,.84.08,1.25l.26,3.82.16,0,.78.13a.49.49,0,0,0,.62-.32l0-.06c.3-1.12.61-2.29.87-3.44a5.05,5.05,0,0,0,.08-1C84.05,197.31,84.05,197.18,84.06,197.05Z"/><path class="cls-16" d="M94.37,202.64c0,.38,0,1.07-.61,1.17a.63.63,0,0,1-.48-.11,1.55,1.55,0,0,1-.36-1.07v-.06c0-.39-.06-.79-.08-1.19s0-.67-.06-1,0-.4-.08-.6v-.05l-.26.09a6.73,6.73,0,0,1-1.12.32,6.5,6.5,0,0,1-1.18.08h-.36l0,2a4.81,4.81,0,0,1,0,.5c0,.08,0,.19,0,.38a.79.79,0,0,1-.15.47c-.16.2-.34.4-.55.4h0a.75.75,0,0,1-.56-.53c0-.18-.07-.29-.09-.38a2.8,2.8,0,0,1-.11-.64c0-.66-.1-1.31-.14-2l-.06-.88a.49.49,0,0,1,0-.12.76.76,0,0,1,0-.26c0-.49,0-1,0-1.48,0-.93.06-1.86.08-2.8a10.09,10.09,0,0,1,.35-2.21c.06-.28.13-.56.18-.84l.06-.21a.79.79,0,0,0,0-.24,2.85,2.85,0,0,1,1.64-2.34,2.16,2.16,0,0,1,2.37.11l.12.07a2.69,2.69,0,0,1,.44.31,2,2,0,0,1,.84,1.46c.16,1.86.15,3.74.14,5.56v1.21c0,.75,0,1.51,0,2.26l0,1.22C94.37,201.73,94.38,202.19,94.37,202.64Zm-1.78-4.49V198c0-.17,0-.33,0-.49l0-1.81c0-1.31-.05-2.63-.09-3.94a3.32,3.32,0,0,0-.22-1,.29.29,0,0,0-.15-.14,3.68,3.68,0,0,0-1.17.18.85.85,0,0,0-.59.71l-.13,1.62c-.1,1.21-.21,2.42-.29,3.63a10,10,0,0,0,0,1.22c0,.13,0,.26,0,.38A7.64,7.64,0,0,0,92.59,198.15Z"/><path class="cls-16" d="M101.93,202.34c0,.18-.06.35-.08.53s-.27.55-.68.77a5.08,5.08,0,0,1-2.12.46,2.19,2.19,0,0,1-1.24-.29,1.68,1.68,0,0,1-.72-1.07c0-.3,0-.59-.07-.89a13.4,13.4,0,0,0-.29-2.19,3,3,0,0,1,.33-1.82c.08-.2.15-.4.22-.6a.37.37,0,0,1,0-.09c.06-.23.17-.72.73-.72h0a.55.55,0,0,1,.52.22.59.59,0,0,1,0,.47V198c0,1.16,0,2.36,0,3.54,0,.45.05.72.2.85s.71.19,1.58,0v-.49c0-.5,0-1,0-1.53a8.08,8.08,0,0,0-.08-.86,8.23,8.23,0,0,1-.07-1.41c0-.72-.09-1.62-1.61-2.24a3.35,3.35,0,0,1-2.34-3.28c0-.57-.06-1.15-.11-1.72l0-.51a1.52,1.52,0,0,1,.35-1.09,2.79,2.79,0,0,1,2.2-.89c2.38,0,2.81.14,2.9,1.92,0,.15,0,.32.06.5.1.59.22,1.32-.42,1.77a.47.47,0,0,1-.46,0c-.64-.33-.64-1.14-.64-1.8a3.89,3.89,0,0,0,0-.71l-.28-.05a4.51,4.51,0,0,0-2-.08l0,.08a1,1,0,0,0-.06.36l.06.51a9.16,9.16,0,0,0,.33,1.87,3.37,3.37,0,0,0,.84,1.17l.11.12a3.72,3.72,0,0,0,.93.66,2.52,2.52,0,0,1,1.5,2.49,9,9,0,0,0,.27,2.15,12.53,12.53,0,0,1,.26,1.51A6.16,6.16,0,0,1,101.93,202.34Z"/><path class="cls-16" d="M109.52,196a5.28,5.28,0,0,0-.28,1.94c.16,2.09.63,5.47-.12,5.66-.56.14-.92-.12-.92-.37a41.38,41.38,0,0,0-.43-4.31c-.06-.59-.13-1.17-.2-1.82l-2.16.41c0,.93-.08,1.88-.13,2.82,0,.58-.07,1.74-.16,2.32-.05.38-.23,1-.73.84s-.41-.86-.34-1.33a17.05,17.05,0,0,0-.21-5.24,1,1,0,0,1,.09-.65,2.71,2.71,0,0,0,.34-1.71c0-.86-.15-1.71-.13-2.56,0-1.15-.32-3.48.64-3.48.73,0,.66,1,.67,1.54,0,1.28,0,2.57,0,3.85v1.49l2.14-.46c.09-1.56.18-3.07.27-4.57a11.5,11.5,0,0,1,.14-1.66c.12-.57.48-.78.91-.68s.66.44.63,1c-.07,1-.07,2.1-.09,3.15q0,.69,0,1.38c0,.19,0,.46.06.57a.73.73,0,0,1,.22.9C109.58,195.35,109.64,195.69,109.52,196Z"/><path class="cls-16" d="M117.46,188.86a1.17,1.17,0,0,1-1,1c-.83.19-1.67.36-2.64.57,0,1.16,0,2.57,0,3.86.51.21,1.25.08,1.76.64-.19.91-.76,1.05-1.79,1.22.06.88.11,1.68.19,2.48a14.61,14.61,0,0,1-.21,3.85,1.38,1.38,0,0,1-.8,1.1,5.12,5.12,0,0,1-.75-3c0-1.35-.1-2.7-.09-4,0-.54-.5-.65-.67-1,0-.08,0-.16,0-.19a3.43,3.43,0,0,0,.76-2.39c.06-.92,0-1.84,0-2.77-1-.85-1-1,.24-1.56a.91.91,0,0,1,.94-.08,1.78,1.78,0,0,0,.83,0,6,6,0,0,1,2.39-.08A8.23,8.23,0,0,1,117.46,188.86Z"/><path class="cls-16" d="M125.68,192.2c0,1.33,0,2.68-.07,4,0,.72,0,1.44,0,2.17l0,1.52c0,.61,0,1.22,0,1.83a1.93,1.93,0,0,0,0,.24,3.27,3.27,0,0,1-.09.93,1.57,1.57,0,0,1-.85,1,1.54,1.54,0,0,1-.61.12,2.44,2.44,0,0,1-1-.27,4.65,4.65,0,0,1-2.56-2.93,9.07,9.07,0,0,1-.32-3.24,12.2,12.2,0,0,0-.07-1.91c0-.4-.06-.81-.07-1.21a22,22,0,0,0-.47-4.14l-.09-.31a1.32,1.32,0,0,1,0-1.21c.36-.46.68-.5.88-.46.36.08.66.47.8,1a39.28,39.28,0,0,1,1,9.36,8.87,8.87,0,0,0,.33,2c0,.21.1.41.14.61a.85.85,0,0,0,.37.55,4.08,4.08,0,0,0,.81.29l.28.07.09-.21a1.45,1.45,0,0,0,.19-.59c0-2.38-.08-4.91-.16-7.76,0-.13,0-.3,0-.47a10.12,10.12,0,0,0,0-1.15c-.08-.65-.29-2.81.25-3.5a.62.62,0,0,1,.36-.21.87.87,0,0,1,.71.18c.25.23.28.66.26,1.23s0,.86,0,1.28S125.69,191.83,125.68,192.2Z"/><path class="cls-16" d="M132.3,201.49c-.31.65-.17,1.38-.88,1.67a3.7,3.7,0,0,1-3,.38,1.32,1.32,0,0,1-.76-1.32c0-1.79-.17-3.58-.12-5.37.07-2.42-.07-4.84-.1-7.27,0-.45,0-.81.55-.9a.82.82,0,0,1,.95.57,1.43,1.43,0,0,1,.13.49c0,1.85.1,3.7.11,5.55,0,1,.14,1.91.09,2.93a7,7,0,0,0,0,1.27c.07.76-.11,1.51.37,2C130.34,202.19,131.35,201.54,132.3,201.49Z"/></svg>