<svg xmlns="http://www.w3.org/2000/svg" id="Capa_1" data-name="Capa 1" viewBox="0 0 216 216"><defs><style>.cls-1{fill:#e4edef}.cls-2{fill:#7f7f7f}.cls-3{fill:#efb525}.cls-4{fill:#dc5d1b}.cls-5{opacity:.1}.cls-6{opacity:.2}.cls-7{fill:#eae8e8}.cls-8{fill:#b7b7b7}.cls-9{fill:#464646}.cls-10{fill:#cccaca}.cls-11{fill:#8c8b8b}.cls-12{fill:#602915}.cls-13{fill:#353535}.cls-14{fill:#d1b699}.cls-15{fill:#f4d4ab}.cls-16{fill:#33210a}</style></defs><title>dwarf</title><path d="M167.16,105.51v45.61a5,5,0,0,1-5,5H119.6a5,5,0,0,0-5,5v20a5,5,0,0,1-5,5h-38a5,5,0,0,1-3.56-1.48L48.48,165.11A5,5,0,0,1,47,161.56v-56a5,5,0,0,1,1.33-3.38l7.86-8.59,9.19-10,7.68-8.39a5,5,0,0,1,3.68-1.63h60.68a5,5,0,0,1,3.68,1.63l7.69,8.39,9.19,10,7.86,8.59A5,5,0,0,1,167.16,105.51Z" class="cls-1"/><polygon points="46.99 176.16 167.16 176.16 167.16 157.12 47 157.12 46.99 176.16" class="cls-2"/><polygon points="157.98 93.54 56.19 93.54 65.38 83.53 148.79 83.53 157.98 93.54" class="cls-2"/><path d="M106.55,134.82l-15.83,5.8a1.54,1.54,0,0,0-1,1.45v20.26a1.57,1.57,0,0,0,1,1.46l15.83,5.79a1.49,1.49,0,0,0,1.06,0l15.84-5.79a1.56,1.56,0,0,0,1-1.46V142.07a1.53,1.53,0,0,0-1-1.45l-15.84-5.8A1.61,1.61,0,0,0,106.55,134.82Z" class="cls-3"/><path d="M106.55,134.82l-15.83,5.8a1.54,1.54,0,0,0-1,1.45v20.26a1.57,1.57,0,0,0,1,1.46l15.83,5.79a1.49,1.49,0,0,0,1.06,0l15.84-5.79a1.56,1.56,0,0,0,1-1.46V142.07a1.53,1.53,0,0,0-1-1.45l-15.84-5.8A1.61,1.61,0,0,0,106.55,134.82Z" class="cls-4"/><path d="M123.45,140.62l-15.84-5.8a1.61,1.61,0,0,0-1.06,0l-15.83,5.8a1.48,1.48,0,0,0-.68.49l16.72,6.12a.91.91,0,0,0,.65,0l16.72-6.12A1.59,1.59,0,0,0,123.45,140.62Z" class="cls-5"/><path d="M107.41,157.17a1,1,0,0,0-.65,0L90,163.29a1.5,1.5,0,0,0,.68.5l15.83,5.79a1.49,1.49,0,0,0,1.06,0l15.84-5.79a1.61,1.61,0,0,0,.68-.5Z" class="cls-6"/><path d="M107.41,147.23a.91.91,0,0,1-.65,0l-1.11-.41v22.43l.9.33a1.49,1.49,0,0,0,1.06,0l.91-.33V146.82Z" class="cls-5"/><path d="M108.4,106a1.51,1.51,0,0,1-1.51-1.51V97.17a1.51,1.51,0,1,1,3,0v7.27A1.52,1.52,0,0,1,108.4,106Z" class="cls-4"/><path d="M113.62,95.11H103.41a1.1,1.1,0,0,1-1.1-1.1V79.47a1.09,1.09,0,0,1,1.1-1.09h10.21a1.09,1.09,0,0,1,1.1,1.09V94A1.1,1.1,0,0,1,113.62,95.11Z" class="cls-7"/><path d="M110.53,78.38V95.11h3.09a1.1,1.1,0,0,0,1.1-1.1V79.47a1.09,1.09,0,0,0-1.1-1.09Z" class="cls-8"/><path d="M112.79,78.38h-8.06V76.13a3.1,3.1,0,0,1,3.1-3.1h1.86a3.1,3.1,0,0,1,3.1,3.1Z" class="cls-9"/><path d="M111.86,99.24h-6.92a.94.94,0,0,1-.94-.94V95.11h8.79V98.3A.94.94,0,0,1,111.86,99.24Z" class="cls-9"/><path d="M174.67,61H39.49a5,5,0,0,0-5,5V201.19a5,5,0,0,0,5,5h11a5,5,0,0,0,2.78-.84L65.77,197a5,5,0,0,1,2.77-.84H143.3a5,5,0,0,1,2.49.66l15.21,8.7a5.06,5.06,0,0,0,2.49.65h11.18a5,5,0,0,0,5-5V66A5,5,0,0,0,174.67,61Zm-7.51,90.12a5,5,0,0,1-5,5H119.6a5,5,0,0,0-5,5v10a5,5,0,0,1-5,5H62.23a5,5,0,0,1-3.56-1.47l-10.19-9.57A5,5,0,0,1,47,161.56v-56a5,5,0,0,1,1.33-3.38l7.86-8.59,9.19-10,7.68-8.39a5,5,0,0,1,3.68-1.63h60.68a5,5,0,0,1,3.68,1.63l7.69,8.39,9.19,10,7.86,8.59a5,5,0,0,1,1.32,3.38Z" class="cls-10"/><path d="M45.72,93.54a2.51,2.51,0,0,1-1.88-4.15l17.52-20a2.51,2.51,0,0,1,3.77,3.3l-17.52,20A2.52,2.52,0,0,1,45.72,93.54Z" class="cls-11"/><path d="M45.72,78.52A2.5,2.5,0,0,1,44,74.25l5-5a2.5,2.5,0,0,1,3.54,3.54l-5,5A2.47,2.47,0,0,1,45.72,78.52Z" class="cls-11"/><path d="M182.34,44.3c-.86-10.58-4-20.16-8.86-27-6.4-9-11.86-9.08-13.91-8.69a5.21,5.21,0,0,0-4.25,3.73,5,5,0,0,0,2,5.13,4.1,4.1,0,0,1,.87.87c-.39.41-2.17,1.73-9.5,3-12.37,2.15-21,9.43-26.14,15.17a53.71,53.71,0,0,0-12.15,22.7,2.11,2.11,0,0,0,.28,1.62,2.16,2.16,0,0,0,1.36.94L175.6,75A2.12,2.12,0,0,0,178,73.79C181.66,65.4,183.21,54.92,182.34,44.3Z" class="cls-4"/><path d="M182.34,44.3c-.86-10.58-4-20.16-8.86-27-6.28-8.84-11.66-9.07-13.79-8.71,1.92,1.15,4.15,3.3,6.5,7.19,4,6.65,6.47,16.09,6.92,26.57s-1.18,21-4.6,29.45a1.92,1.92,0,0,1-2.1,1.29L175.6,75A2.12,2.12,0,0,0,178,73.79C181.66,65.4,183.21,54.92,182.34,44.3Z" class="cls-6"/><path d="M47,133.38H34.48V201a5,5,0,0,0,5,5H47V133.38Z" class="cls-4"/><path d="M167.16,133.38V206h7.51a5,5,0,0,0,5-5V133.38Z" class="cls-4"/><path d="M162.16,155.91H119.6a5,5,0,0,0-5,5v10a5,5,0,0,1-5,5H62.23a5,5,0,0,1-3.56-1.47l-10.19-9.57A5,5,0,0,1,47,161.34V206h3.49a5,5,0,0,0,2.78-.84l12.5-8.33a5,5,0,0,1,2.77-.84H143.3a5,5,0,0,1,2.49.66l15.21,8.7a5.06,5.06,0,0,0,2.49.65h3.67V150.9A5,5,0,0,1,162.16,155.91Z" class="cls-12"/><path d="M160.68,176.16a10.26,10.26,0,0,1-1.23-.13,4.41,4.41,0,0,1-1.23-.39,5.14,5.14,0,0,1-1.17-.59c-.32-.26-.64-.52-1-.77a6.59,6.59,0,0,1,0-9.21l1-.77a4.76,4.76,0,0,1,1.17-.59,3.84,3.84,0,0,1,1.23-.39,6.48,6.48,0,0,1,5.83,1.75c.26.33.52.65.78,1a3.77,3.77,0,0,1,.59,1.1,4.09,4.09,0,0,1,.38,1.23,7.35,7.35,0,0,1,.13,1.24A8.06,8.06,0,0,1,167,171a4.33,4.33,0,0,1-.38,1.17,5.35,5.35,0,0,1-.59,1.17l-.78,1-1,.77a4.7,4.7,0,0,1-1.16.59,4.48,4.48,0,0,1-1.24.39,9.85,9.85,0,0,1-1.23.13Z" class="cls-13"/><rect width="27.99" height="12.96" x="121.99" y="163.2" class="cls-13" rx="2.4"/><path d="M156.81,207.89c-.29-1.41-.58-3.95-.87-5.36a.76.76,0,0,0-.7-.64l-2.32-.34,1.55-.39a.84.84,0,0,0,.65-.92c-.17-1.08-1.41-3.94-1.57-5.06a.73.73,0,0,0-.49-.6c-1.57-.39-3.18-.76-4.8-1.06l4.24-.35a.81.81,0,0,0,.6-1.1c-.6-1.91-1-3.88-1.54-5.83-.52-1.78-1.06-3.49-1.59-5.28a.78.78,0,0,0-.86-.44c-2.62.42-5.3.64-8,.88-7.77.65-15.53.83-23.28.75-5,0-10-.1-14.9-.33s-9.06-.69-14-1.2c-7.66-.8-15.37,1-23.08.34-3.67-.33-7.33-.64-11-.88a.78.78,0,0,0-.55.19.62.62,0,0,0-.32.65.67.67,0,0,0,.09.26c.35.64.65,1.27,1,1.9.15.28.29.56.45.85.65,1.19.41,4.25.74,5.6a46.27,46.27,0,0,1,.29,6.92,7.84,7.84,0,0,1-.07.84c0,.38-.2.63.09.11a.81.81,0,0,0,.35,1.22,12.54,12.54,0,0,0,2.06.43c1.41.21,2.79.45,4.2.67h0c-1,.09-2,.17-3.07.32a12.07,12.07,0,0,0-2.94.43.83.83,0,0,0-.48.86,22.14,22.14,0,0,1,1,7.93v.09a.77.77,0,0,0,.91.81h.42c1.82.05,3.63,0,5.46,0,4,0,8,0,12-.1,7.69-.09,15.44-.15,23.14-.45,13.73-.54,28.49,1.55,42.18.58,4.87-.39,9.7-.65,14.49-1.41A.77.77,0,0,0,156.81,207.89Z" class="cls-14"/><path d="M156.15,207.32c-.29-1.41-.58-3.95-.87-5.36a.76.76,0,0,0-.7-.65l-2.33-.34,1.56-.38a.86.86,0,0,0,.64-.92c-.17-1.09-1.4-3.95-1.56-5.07a.76.76,0,0,0-.49-.6c-1.58-.39-3.18-.76-4.8-1.06l4.23-.34a.81.81,0,0,0,.6-1.1c-.59-1.91-1-3.89-1.53-5.83-.53-1.79-1.06-3.5-1.59-5.29a.79.79,0,0,0-.86-.43c-2.63.42-5.31.63-8,.88-7.77.65-15.53.82-23.29.75-5,0-10-.11-14.9-.34s-9.05-.69-14-1.19c-7.66-.8-15.37,1-23.09.34-3.66-.34-7.32-.65-11-.89a.88.88,0,0,0-.56.19.64.64,0,0,0-.31.66.73.73,0,0,0,.09.26c.34.63.65,1.26,1,1.89l.44.85c.65,1.19.42,4.25.74,5.6a43.81,43.81,0,0,1,.29,6.92,6.25,6.25,0,0,1-.06.85c0,.37-.2.63.08.11a.81.81,0,0,0,.35,1.21,11,11,0,0,0,2.07.43l4.2.67h0c-1,.1-2.05.17-3.07.32a11.55,11.55,0,0,0-2.94.44.81.81,0,0,0-.49.85,22.17,22.17,0,0,1,1,7.93.28.28,0,0,1,0,.09.78.78,0,0,0,.92.82h.41c1.82,0,3.64,0,5.47,0,4,0,8-.06,12-.11,7.7-.08,15.45-.14,23.14-.45,13.73-.53,28.5,1.55,42.19.58,4.87-.39,9.7-.65,14.49-1.4A.78.78,0,0,0,156.15,207.32Z" class="cls-15"/><path d="M91.87,196a5.28,5.28,0,0,0-.28,1.94c.15,2.09.63,5.47-.12,5.66-.56.14-.93-.12-.93-.37,0-1.45-.28-2.88-.42-4.31-.06-.59-.13-1.17-.21-1.83l-2.15.42c-.05.93-.08,1.88-.13,2.82,0,.58-.07,1.74-.16,2.32,0,.38-.23,1-.73.84s-.41-.86-.34-1.33a17,17,0,0,0-.21-5.23,1,1,0,0,1,.09-.66,2.71,2.71,0,0,0,.34-1.71c0-.86-.15-1.71-.14-2.56,0-1.16-.31-3.48.65-3.48.73,0,.66,1,.67,1.53,0,1.29,0,2.58,0,3.86v1.49l2.14-.46c.09-1.56.17-3.07.27-4.57a10.24,10.24,0,0,1,.14-1.66c.12-.57.48-.78.9-.68s.67.44.64,1c-.07,1-.07,2.1-.1,3.15,0,.46,0,.92,0,1.38,0,.19,0,.46.06.57a.71.71,0,0,1,.21.9C91.93,195.35,92,195.69,91.87,196Z" class="cls-16"/><path d="M100.69,202.64c0,.38,0,1.07-.61,1.17a.63.63,0,0,1-.48-.11,1.55,1.55,0,0,1-.36-1.07v-.06c0-.39-.06-.79-.08-1.19l-.06-1c0-.2,0-.4-.08-.6v-.05l-.27.09a5.5,5.5,0,0,1-2.29.4h-.36l0,2a4.81,4.81,0,0,1,0,.5c0,.08,0,.19,0,.38a.87.87,0,0,1-.15.47c-.17.2-.35.4-.55.4h0a.74.74,0,0,1-.56-.53c0-.18-.07-.29-.09-.38a2.8,2.8,0,0,1-.11-.64c-.06-.66-.1-1.31-.14-2l-.06-.88s0-.08,0-.12a1.13,1.13,0,0,1,0-.26c0-.49,0-1,0-1.48,0-.93.06-1.86.08-2.8a10.09,10.09,0,0,1,.35-2.21l.18-.84a1.66,1.66,0,0,1,.06-.21.79.79,0,0,0,0-.24,2.84,2.84,0,0,1,1.63-2.34,2.18,2.18,0,0,1,2.38.11l.12.07a3.19,3.19,0,0,1,.44.31,2,2,0,0,1,.84,1.46c.16,1.86.15,3.74.14,5.56v1.21c0,.75,0,1.51,0,2.26l0,1.22C100.69,201.73,100.7,202.19,100.69,202.64Zm-1.79-4.49V198c0-.17,0-.33,0-.49l0-1.81c0-1.31,0-2.63-.09-3.94a3.32,3.32,0,0,0-.22-1c0-.05-.11-.13-.16-.15a4,4,0,0,0-1.16.19.84.84,0,0,0-.59.71l-.13,1.62c-.11,1.21-.21,2.42-.29,3.63a10,10,0,0,0,0,1.22c0,.13,0,.26,0,.38A7.56,7.56,0,0,0,98.9,198.15Z" class="cls-16"/><path d="M108.34,191.77a7.7,7.7,0,0,1-2.31,4.28,2.85,2.85,0,0,1-.93.43v4.89c0,.58.05,1.15.06,1.73,0,.73-.32.93-1.07,1-.33,0-.77,0-.91-.12-.33-.33-.27-.94-.27-1.42,0-1.42.11-2.84.11-4.26s-.07-3.08-.08-4.62c0-1.69,0-3.37,0-5,.93-.17,1.67-.32,2.4-.44,1.39-.23,2.45.18,2.87,1.34A5.05,5.05,0,0,1,108.34,191.77Zm-2.43-2.43c-.46.17-.94.34-1.26.47.13,1.6.24,2.91.35,4.25A3.83,3.83,0,0,0,105.91,189.34Z" class="cls-16"/><path d="M116,191.77a7.62,7.62,0,0,1-2.3,4.28,2.85,2.85,0,0,1-.93.43c0,1.62,0,3.26,0,4.89,0,.58,0,1.15,0,1.73,0,.73-.31.93-1.07,1-.32,0-.77,0-.9-.12-.34-.33-.27-.94-.27-1.42,0-1.42.11-2.84.11-4.26s-.07-3.08-.09-4.62c0-1.69,0-3.37,0-5,.93-.17,1.66-.32,2.4-.44,1.39-.23,2.45.18,2.87,1.34A5.05,5.05,0,0,1,116,191.77Zm-2.42-2.43-1.27.47c.14,1.6.25,2.91.36,4.25A3.83,3.83,0,0,0,113.61,189.34Z" class="cls-16"/><path d="M125.57,190.76c-.7,1.16-1,2.57-1.66,3.72-1.53,2.53-1,5.27-1.11,8,0,.45,0,1.41-.75,1.41s-.72-1.25-.8-2c-.17-1.79-.25-3.59-.37-5.58-1.33-1.18-2.61-3.83-3.31-5.67-.35-.91-.07-1.42.43-1.56.68-.2,1.2.22,1.48,1,.33,1,.83,2.42,1.24,3.4a8.62,8.62,0,0,0,.94,1.42c.59-1.53,1.1-2.88,1.62-4.22.09-.23.2-.45.28-.68.35-.95,1.12-1.75,2-1.15C126.28,189.26,126,190,125.57,190.76Z" class="cls-16"/></svg>